<?xml version="1.0" encoding="UTF-8"?>
<svg width="200px" height="100px" viewBox="0 0 200 100" version="1.1" xmlns="http://www.w3.org/2000/svg" xmlns:xlink="http://www.w3.org/1999/xlink">
    <!-- Generator: Sketch 53.2 (72643) - https://sketchapp.com -->
    <title>logo</title>
    <desc>Created with Sketch.</desc>
    <defs>
        <linearGradient x1="64.4696074%" y1="86.16491%" x2="34.8070174%" y2="8.69499544%" id="linearGradient-1">
            <stop stop-color="#0070B6" offset="0%"></stop>
            <stop stop-color="#1D2C5E" offset="100%"></stop>
        </linearGradient>
        <linearGradient x1="40.1293456%" y1="65.3383439%" x2="89.0853164%" y2="7.48713376%" id="linearGradient-2">
            <stop stop-color="#0070B6" offset="0%"></stop>
            <stop stop-color="#1D2C5E" offset="100%"></stop>
        </linearGradient>
        <linearGradient x1="50.5537848%" y1="89.4943124%" x2="47.3621077%" y2="8.08876534%" id="linearGradient-3">
            <stop stop-color="#0070B6" offset="0%"></stop>
            <stop stop-color="#1D2C5E" offset="100%"></stop>
        </linearGradient>
        <linearGradient x1="50.3436515%" y1="81.3150565%" x2="49.0448667%" y2="9.51102229%" id="linearGradient-4">
            <stop stop-color="#125D9E" offset="0%"></stop>
            <stop stop-color="#1D2C5E" offset="100%"></stop>
        </linearGradient>
        <linearGradient x1="58.1912981%" y1="-3.40768095%" x2="51.8854276%" y2="37.8502488%" id="linearGradient-5">
            <stop stop-color="#125D9E" offset="0%"></stop>
            <stop stop-color="#1D2C5E" offset="100%"></stop>
        </linearGradient>
        <linearGradient x1="18.9578272%" y1="7.02171389%" x2="45.9781711%" y2="45.612985%" id="linearGradient-6">
            <stop stop-color="#105FA1" offset="0%"></stop>
            <stop stop-color="#1D2C5E" offset="100%"></stop>
        </linearGradient>
        <linearGradient x1="28.394235%" y1="-5.95869899%" x2="48.4128827%" y2="43.973632%" id="linearGradient-7">
            <stop stop-color="#105FA1" offset="0%"></stop>
            <stop stop-color="#1D2C5E" offset="100%"></stop>
        </linearGradient>
        <linearGradient x1="0.00075334296%" y1="49.996416%" x2="99.9989328%" y2="49.996416%" id="linearGradient-8">
            <stop stop-color="#3C5AA6" offset="0%"></stop>
            <stop stop-color="#2B73B9" offset="93.31%"></stop>
            <stop stop-color="#2A75BB" offset="100%"></stop>
        </linearGradient>
        <linearGradient x1="0.000252123292%" y1="49.9998016%" x2="100.000339%" y2="49.9998016%" id="linearGradient-9">
            <stop stop-color="#3C5AA6" offset="0%"></stop>
            <stop stop-color="#2B73B9" offset="93.31%"></stop>
            <stop stop-color="#2A75BB" offset="100%"></stop>
        </linearGradient>
    </defs>
    <g id="logo" stroke="none" stroke-width="1" fill="none" fill-rule="evenodd">
        <g id="pokemon-logo" transform="translate(4.000000, 15.000000)" fill-rule="nonzero">
            <polygon id="polygon16" fill="url(#linearGradient-1)" points="0 26.678604 8.57621679 41 12 37.7697319 2.66571581 24"></polygon>
            <polygon id="polygon18" fill="#0071B9" points="127.323366 14.915076 127 17 131 15.553954 130.501391 13"></polygon>
            <polygon id="polygon25" fill="url(#linearGradient-2)" points="102.871213 2.67906582 90 18 93.7456426 16.8818259 106 1"></polygon>
            <polygon id="polygon27" fill="#1D2C5E" points="174 22.7025316 177 21 176.142857 29"></polygon>
            <polygon id="polygon29" fill="#1D2C5E" points="153 28.4051786 156.075065 29 160 27.2004316 156.593668 26"></polygon>
            <polygon id="polygon36" fill="url(#linearGradient-3)" points="55 19.7328093 55.411334 29 59 27.3993482 57.9258198 18"></polygon>
            <polygon id="polygon43" fill="url(#linearGradient-4)" points="156.943066 17 154 18.6816337 154.107705 28 157.070235 26.392556 158 21.8820958"></polygon>
            <polygon id="polygon45" fill="#312370" points="155.66164 28.6887069 152 60 157.853493 58.8885444 159 27"></polygon>
            <polygon id="polygon47" fill="#21386E" points="162.611263 62.2169003 162.71326 66.512526 173.723172 70 177 68.2737539 166.196954 59.9552181 155.253843 59 152 60.6984034"></polygon>
            <polygon id="polygon49" fill="#21386E" points="122.819437 54.7337994 125.473282 53.2962875 127.164782 56.4391177 129.665751 55.0568676 130.163831 59.2000756 145.862869 62 149 60.2649254 127.352179 47 111.995526 49.6468921 109 52.5098715"></polygon>
            <polygon id="polygon56" fill="url(#linearGradient-5)" points="118 15 114.793211 16.7654319 109 52 112.244888 50.313671 117.805911 30.5300474"></polygon>
            <polygon id="polygon58" fill="#1D2C5E" points="92.4350805 20.6929007 90 22.1117893 90.2048647 23 96 18.9726951 93.4676259 16 90.206235 17.8109005"></polygon>
            <polygon id="polygon60" fill="#21386E" points="98.7907102 61 73 48.4118881 76.237678 46 102 59.2923077"></polygon>
            <polygon id="polygon62" fill="#1D2C5E" points="75.8479736 13.7085337 72 21 76.0659812 19.769744 79 12"></polygon>
            <path d="M40.3115738,44 L37,46.3304268 C37,46.3304268 37.7028006,50.1187404 38.6087434,52.7538985 C39.5196757,55.3985565 41.6879511,57.522906 41.6879511,57.522906 C43.0807223,58.9186774 44.7878293,59.9344483 46.6923762,60.5044492 C50.3553503,61.5852586 54.4894717,60.8807959 58.038401,58.5605999 C58.96644,57.9584452 60.2259214,56.994559 61,56.233827 C57.5116569,58.4042151 40.3115738,44 40.3115738,44 Z" id="path69" fill="url(#linearGradient-6)"></path>
            <polygon id="polygon71" fill="#1D2C5E" points="58.0719517 27.9794272 61.1352337 61 73.6513415 59.1907019 77 57.4759984 61.4675709 26 58.2720765 27.0518354 55 28.7383017"></polygon>
            <polygon id="polygon78" fill="url(#linearGradient-7)" points="12.1927971 39.5705227 25.8532261 71 38.8311983 66.7528894 42 64.5921039 15.0630681 36 11.6924228 38.0490948 9 40.9609287"></polygon>
            <path d="M148,54.477749 L148.179791,56 C149.275132,55.8742642 150.425793,55.7294561 151.410494,55.3713209 C152.558389,54.9700965 155.051949,53.8356487 156,53 C155.644567,53.1320932 149.802057,54.6790676 148,54.477749" id="path80" fill="#1D2C5E"></path>
            <path d="M102,46.6022664 L102.487601,49 C105.117821,48.6171918 107.375626,47.6656993 109.595272,46.3611111 C110.988115,45.5498894 112.517345,44.326147 113,44 C112.659386,44.2128248 102,46.6022664 102,46.6022664 Z" id="path82" fill="#1D2C5E"></path>
            <g id="g84" transform="translate(3.000000, 2.000000)" fill="#FFCB05">
                <path d="M25.9133788,66.5281489 L24.8900606,64.2522872 L11.8212121,35.0581064 L11.5527424,34.459383 L10.9588333,34.7337979 L10.5621818,34.916266 L8.23568182,36.0595426 C7.89243939,35.4836277 7.32274242,34.5185426 6.92680303,33.8492553 L1.66636364,24.9510851 L0.290545455,22.6281809 L2.56648485,21.1848298 C4.71922727,19.810617 7.15040909,18.5411809 9.79522727,17.410734 C15.0613636,15.1655213 20.4364545,13.9780532 25.3379848,13.9780532 C26.9502273,13.9780532 28.5104848,14.1084894 29.9760303,14.3636596 C32.4193182,14.6423511 34.6788788,15.4449255 36.5453485,16.6894149 C39.3268939,18.2460957 41.5166667,20.6609468 42.7536212,23.5177128 C43.7691061,25.8655638 43.9670758,28.6154149 43.3218939,31.4679043 L42.9430455,33.143617 L44.3338182,32.1343404 C45.2709697,31.4536489 46.289303,30.8720319 47.3603333,30.4051702 C49.2118485,29.6218404 51.1274545,29.2219787 53.0466212,29.2219787 C54.8632424,29.2219787 56.5808788,29.5819255 58.1525303,30.2897021 L59.1658788,30.7444468 L59.0640455,29.6375213 L58.6232424,24.8541489 L58.5520303,24.095766 L57.8142727,24.2875 L55.6002879,24.8619894 L55.2121818,16.7172128 L71.4300303,11.5311277 L71.299,17.8612021 L72.5202879,18.1748191 L76.0623788,11.380734 L86.6708485,20.7977979 L87.1130758,21.1919574 L87.5446212,20.7856809 C88.9980606,19.4185957 90.7206818,18.3216489 92.6640606,17.5254894 L93.4758788,17.1933404 L92.9197121,16.5140745 L91.0069545,14.1804787 L103.186364,0.129010638 L109.564833,9.65512766 L99.8009394,14.9082128 L97.6325303,16.0757234 L100.094333,16.1277553 C104.723121,16.2254043 108.822091,18.1855106 111.634258,21.6459894 L112.651167,22.9011702 L113.306318,23.7073085 L112.218197,24.8634149 L111.492545,25.6346277 L109.052818,28.2390745 L108.599197,28.7230426 L109.089848,29.166383 L111.37647,31.2269894 L112.260924,32.0231489 L112.450348,30.8485106 L113.327682,25.4122447 L113.552,24.0166489 L113.559121,24.0244894 L113.789848,22.5989574 L115.099439,14.5732128 L126.791045,14.5732128 L127.339379,14.5732128 L127.431955,14.0322234 L127.660545,12.6580106 L138.189258,12.6580106 L140.740076,28.7814894 L140.906,29.8256915 L141.760545,29.2048723 C142.793833,28.453617 143.935364,27.8356489 145.154515,27.3687872 C146.777439,26.7558085 148.448076,26.4429043 150.115864,26.4429043 C152.101258,26.4429043 154.02897,26.9019255 155.696045,27.7693617 C155.740197,27.8014362 155.802864,27.8427766 155.888318,27.8769894 L156.679485,28.194883 L156.772773,27.345266 L156.963621,25.5882979 L157.026288,25.012383 L156.460152,24.8862234 L154.325212,24.4086702 L154.221242,16.003734 L170.498197,19.5896596 L171.720909,25.6374787 L172.984924,25.6624255 L174.246091,20.4578085 L187.819121,23.7614787 L173.948424,65.6029787 L164.022879,62.4832021 L163.952379,58.6292766 L163.942409,58.076883 L163.394788,57.9999043 L153.490606,56.6007447 L154.051045,51.5622021 L154.184212,50.3633298 L153.11247,50.9128723 C152.604727,51.1716064 152.113364,51.389 151.649061,51.5600638 C150.029697,52.1730426 148.371167,52.4830957 146.719758,52.4830957 C146.241924,52.4830957 145.761955,52.4567234 145.294803,52.4039787 L144.448803,52.3091809 L144.581258,53.1502447 L145.278424,57.5815106 L130.828773,55.0305213 L130.071788,48.4545426 L129.828242,46.3468936 L128.854773,48.230734 L127.191258,51.4417447 L124.128424,45.782383 L123.207652,44.0824362 L122.917106,45.9926489 L122.249848,50.3733085 L109.585485,48.3782766 L110.5675,42.3660957 L110.791818,40.9876064 L109.594742,41.7039362 C107.521758,42.9477128 105.141136,43.8835745 102.319,44.5656915 C101.332712,44.8066064 100.302273,44.9733936 99.2533182,45.0603511 L98.6594091,45.1102447 L98.6594091,45.7068298 L98.6594091,57.0526383 L73.7187879,44.7153723 L72.7816364,44.2527872 L72.7823485,45.2984149 L72.7994394,55.8502021 L61.6483333,57.4945532 L61.1797576,52.4275 L61.053,51.0718191 L60.0809545,52.0255 C58.6075758,53.4688511 56.9476212,54.5878936 55.1480909,55.3519787 C53.3072576,56.1353085 51.4080303,56.5316064 49.5045303,56.5316064 C47.6038788,56.5316064 45.8178788,56.133883 44.1956667,55.3562553 C41.1905152,53.9093404 39.0228182,51.2842234 38.0927879,47.972 C37.6498485,46.4160319 37.5295,44.7731064 37.735303,43.0867021 L37.9553485,41.2905319 L36.6464697,42.5378723 C35.7235606,43.4145745 34.7294394,44.2520745 33.6897424,45.0211489 L33.3372424,45.2813085 L33.4483333,45.7054043 L37.2047727,60.1374894 L37.8684697,62.6984574 L35.3532576,63.4988936 L28.2804697,65.7654894 L25.9133788,66.5281489 L25.9133788,66.5281489 Z M29.0880152,27.7850426 C28.7234091,27.7850426 28.346697,27.8185426 27.9671364,27.8869681 L27.4857424,27.9796277 L26.7750455,28.1164787 L26.9893939,28.8092872 L27.1289697,29.2597553 L29.1513939,35.8834894 L29.3536364,36.5199894 L29.6541515,37.4750957 L30.4018788,36.8093723 L30.8982273,36.3667447 C32.858697,34.6033617 33.5458939,32.8128936 33.1321515,30.5548511 C32.8715152,29.199883 31.8232727,28.5248936 31.2208182,28.2426383 C30.591303,27.939 29.8706364,27.7850426 29.0880152,27.7850426 L29.0880152,27.7850426 L29.0880152,27.7850426 Z M83.3053636,28.0024362 L82.0413485,29.2340957 L78.7121818,32.4721915 L77.9872424,33.177117 L78.930803,33.5420532 L82.5013788,34.9212553 L83.5980455,35.3439255 L83.3715909,34.1906702 C83.0767727,32.7009894 82.9998636,31.209883 83.1380152,29.7594043 L83.3053636,28.0024362 L83.3053636,28.0024362 Z M97.8440303,24.3195745 C96.4632273,24.3195745 95.1272879,24.9140213 94.1780303,25.9489574 C92.7381212,27.5227447 92.4582576,29.8442234 93.4822879,31.7245 L93.7536061,32.2341277 L94.1901364,33.0488191 L94.804697,32.3602872 L95.1999242,31.9219362 L100.083652,26.3409787 L100.467485,25.8990638 L101.08347,25.1905745 L100.204712,24.8648404 L99.6570909,24.6624149 C99.0824091,24.4371809 98.4671364,24.3195745 97.8440303,24.3195745 L97.8440303,24.3195745 Z" id="path86"></path>
            </g>
            <path d="M108.5755,34.396 C108.5095,34.454 108.4485,34.528 108.3965,34.604 C108.4655,34.541 108.5325,34.486 108.6035,34.428 L108.5755,34.396 Z" id="path88" fill="#7D7F68"></path>
            <polygon id="polygon90" fill="#7D7F68" points="112.551823 30.517974 115 28 114.162259 28.8572413 114.186562 28.7490525 113.446033 29.5022396 111 32.0126335 113.291637 34 113.706934 31.5247502 114.847748 32.5094751"></polygon>
            <polygon id="polygon92" fill="#7D7F68" points="113 30.1051665 115.169293 32 116 27 115.313147 27.7094152"></polygon>
            <path d="M82.474,34.489 L82.526,34.511 L82.474,34.489 Z" id="path94" fill="#7D7F68"></path>
            <path d="M96.1134518,36.8028343 C96.3267883,36.9924694 96.1298025,36.8562333 96.3688327,37 L98,35.988841 C97.7578554,35.8382282 97.5180465,35.6766619 97.2977027,35.4959266 C94.9307582,33.5995755 95.5458523,29.3344972 97.0812518,27 C93.0395385,29.8671185 93.2497605,34.2807558 96.1134518,36.8028343" id="path96" fill="#C7A008"></path>
            <path d="M113.799303,38.752025 C111.310366,40.7799669 108.473266,42.102168 104.724755,42.994264 C103.90542,43.1792021 103.10263,43.3138314 102.317104,43.3818546 C96.3673949,43.9579261 91.3758541,41.266758 89.4818165,36.9019355 C89.2458711,36.3733385 89.0638766,35.8383643 88.9264815,35.2672528 C88.0503183,31.5911653 88.798438,28.3062113 90.6421213,25.7312495 C90.8248352,25.4818311 91.0169005,25.2430413 91.2183174,25 C91.1240831,25.0793604 91.0276907,25.1473836 90.949282,25.221784 C90.2407264,25.8432043 89.6134568,26.524145 89.0804215,27.2681488 C87.2345801,29.8431106 86.4864604,33.1301904 87.3705365,36.8006093 C87.5057735,37.3717208 87.6848906,37.9144893 87.9158006,38.4310405 C89.8105576,42.805783 94.803537,45.495534 100.748211,44.9237139 C101.540211,44.848605 102.340123,44.7196443 103.160178,44.5247862 C106.913005,43.6326901 109.747947,42.3161577 112.236883,40.2882158 C112.844731,39.7957561 113.430997,39.2586562 114,38.6712475 L113.947488,38.6216472 C113.890659,38.6698303 113.848218,38.7116363 113.799303,38.752025" id="path98" fill="#C7A008"></path>
            <polygon id="polygon100" fill="#C7A008" points="72.0376709 28 79 19.2335734 78.7174685 19 72 27.4545455"></polygon>
            <polygon id="polygon102" fill="#C7A008" points="116 27 115.070014 32.4532639 113.8633 31.4314026 113.424013 34 111 31.9376852 113.587328 29.3326182 114.370634 28.5510267 114.344927 28.6632955 115.23106 27.7737256"></polygon>
            <polygon id="polygon104" fill="#C7A008" points="107.527569 11 110 10.0725025 105.480708 5 104 6.8088874"></polygon>
            <path d="M43.9465323,25.4085371 C33.2358959,12.307286 13.9365282,19.3493435 7,25.4776616 L7.27106458,25.9478522 C8.86589956,25.0290725 10.5475039,24.1981385 12.3165947,23.4528901 C19.2065113,20.4978181 25.7751661,19.6316018 31.0415636,20.5568619 C32.9031606,20.7714359 34.8751912,21.3258719 36.5912165,22.4793868 C38.9669756,23.8150736 40.7676189,25.7152771 41.8203247,28.1504753 C43.6883755,32.4635555 42.0426263,38.1987281 37.6432052,43 C43.1613055,37.9157497 46.9368479,33.0511136 43.9465323,25.4085371 Z" id="path106" fill="#C7A008"></path>
            <path d="M65.788884,40.1792795 C65.740098,39.950115 65.691312,39.7174783 65.6167391,39.4931749 C65.0306101,37.3925005 63.7712342,35.7154332 62.1201765,34.5994716 C59.4480974,32.7911556 55.7180589,32.4196313 52.0005654,33.9835053 C50.0449436,34.8258584 48.3444029,36.1223738 47,37.6709701 C48.0335663,36.7848674 49.2148846,36.04668 50.490987,35.4966853 C54.2001172,33.9279503 57.9301557,34.2987801 60.6112951,36.1050128 C62.2623528,37.2223633 63.5112745,38.8987362 64.1099485,40.9966328 C64.1761581,41.2216307 64.2277319,41.4577395 64.2793056,41.6945428 C64.4382086,42.4931463 64.5120846,43.3007775 64.4814191,44.1278529 C64.4040584,46.5458854 63.5043051,48.9805844 62.0079687,51.0597312 C61.7668264,51.3888947 61.5131392,51.6958362 61.2503917,52 C62.102056,51.2673681 62.8624207,50.4569592 63.5119715,49.5493289 C65.0145804,47.4833764 65.9122429,45.0438164 65.9916944,42.6112007 C66.0251476,41.7994029 65.9575442,40.9785774 65.788884,40.1792795" id="path108" fill="#C7A008"></path>
            <path d="M55.3889959,36.6183461 C55.3732033,36.6429449 57.0186408,35.0022803 56.9998401,35.0022803 C54.9415392,34.9247568 54.0714427,36.8486802 54,37 C54.4226398,36.7972464 54.8888972,36.6653074 55.3889959,36.6183461" id="path110" fill="#C7A008"></path>
            <path d="M59.1422755,38.7950558 C59.2258341,39.0909091 59.2694954,39.3851675 59.2694954,39.7073365 C59.2694954,40.161882 59.1738923,40.5980861 59,41 C59.3297178,40.8173844 61.7122679,39.5933014 60.7886063,37 C60.8382898,37.0797448 59.0828058,38.7870813 59.1422755,38.7950558" id="path112" fill="#C7A008"></path>
            <path d="M49.581689,40.046018 C49.581689,39.090738 51.2508044,36.77322 51.7709914,36 C49.1350859,37.6421107 48,39.8582463 48,41.6038814 C48,44.5946648 50.6818044,47 53.8881671,47 C55.4050149,47 58.1829883,46.2139287 60,43.3323814 C59.0477809,43.946388 56.6275272,45.4157201 55.3576589,45.4157201 C52.1520248,45.4150062 49.581689,43.0532226 49.581689,40.046018" id="path114" fill="#C7A008"></path>
            <polygon id="polygon116" fill="#C7A008" points="72 42.6073055 72.0414847 54.888452 74 55 73.6128093 41"></polygon>
            <polygon id="polygon118" fill="#C7A008" points="61 19.8705327 61.0380958 20.9641579 69.8714816 18.2068572 70.5260374 30 72 27.834535 71.6855362 16"></polygon>
            <polygon id="polygon120" fill="#C7A008" points="89 24.5612105 80.0691121 17 79 19.1877579 86.8602848 26"></polygon>
            <path d="M87.4615293,38.3440575 L77.4574985,35 L76,36.5562453 L85.9663308,40.5885314 C87.0966212,42.741673 88.8094843,44.5862983 90.9662122,45.9347086 C93.0539419,47.2255867 95.4397155,47.9986752 97.9663308,48.2439061 L97.9663308,53.2204391 L99.5113219,54 L100,46.5236942 L87.4615293,38.3440575 L87.4615293,38.3440575 Z" id="path122" fill="#C7A008"></path>
            <path d="M102.767263,37.6158752 C105.291195,36.9636396 106.746803,35.5526809 108,34 C107.059554,34.8268437 102.344903,35.927736 101.552795,36.2150955 L100,37.9870153 C100.709536,38.0543529 101.896237,37.849208 102.767263,37.6158752" id="path124" fill="#C7A008"></path>
            <path d="M98.4076242,20.3965181 C93.7989343,20.9534605 91.3972634,24.5241693 91,24.958905 C92.7019373,23.631993 94.8351478,22.6469929 97.2375423,22.1221047 C102.940335,20.8492843 107.96872,22.4539997 111.076637,26 L113,24.4974575 C109.921751,21.0128944 104.10897,19.1277044 98.4076242,20.3965181" id="path126" fill="#C7A008"></path>
            <path d="M113.83614,39 C114.417408,38.5328512 115.45052,38.0606405 116,37.5103306 L109.545506,32 C109.051277,32.5647727 108.603217,33.4954545 108,33.9850207 L113.83614,39 L113.83614,39 Z" id="path128" fill="#C7A008"></path>
            <path d="M144.834936,53.8747805 C138.594532,48.6036627 138.967687,37.3009354 142.031044,33.714941 L139.281555,16 L133.267834,16.7977637 L133,18.3581694 L137.550396,18.3581694 L139.960209,34.4309931 C136.894062,38.0284557 135.412603,42.8480092 136.437209,47.2604379 C137.23025,50.6701072 139.268303,53.4296671 142.201928,55.0259112 C142.496964,55.1922016 142.801765,55.3369889 143.113541,55.4738917 L143.152601,55.7097086 L144.941651,56 C144.941651,55.9992832 145.12788,54.028169 144.834936,53.8747805 L144.834936,53.8747805 Z" id="path130" fill="#C7A008"></path>
            <polygon id="polygon132" fill="#C7A008" points="120.273654 18.6236491 120 20.116295 127.253671 20.116295 129.390532 31 131 29.4895356 129.307919 18"></polygon>
            <polygon id="polygon134" fill="#C7A008" points="132.384081 40.552718 130 46.4624129 130.590201 48 134 39"></polygon>
            <polygon id="polygon136" fill="#C7A008" points="126 37 124.551998 38.5895038 123 49.3759942 124.486421 50"></polygon>
            <path d="M157.303179,33.5667334 C158.203299,34.2327977 158.971234,35.0757059 159.548934,36.0780638 C160.004939,36.8470455 160.34974,37.708073 160.57005,38.653174 C161.319101,41.8805777 160.423177,45.3710733 158.443192,48.1715871 C158.243864,48.4556972 158.024254,48.7303853 157.814436,49 C158.61874,48.2832018 168.387879,40.8158896 158.843245,31.008293 C148.345337,27.4221277 144.371378,34.5198068 144,34.9698894 C145.109239,33.9928986 146.389131,33.1847793 147.77533,32.6354031 C151.328253,31.2409443 154.823826,31.7243664 157.303179,33.5667334" id="path138" fill="#C7A008"></path>
            <path d="M151.435216,34.6268932 C151.465116,34.6970816 152.969388,33 153,33 C151.098481,33.0812708 150.185097,34.0336165 150.27907,34.4732176 C150.165164,34.6438862 150.072615,34.8130772 150,35 C150.40579,34.7901736 151.156146,34.6291097 151.435216,34.6268932" id="path140" fill="#C7A008"></path>
            <path d="M155.16377,36.3793684 C155.235234,36.6054737 155.269477,36.8423158 155.263522,37.0968421 C155.245656,37.4227368 155.145905,37.7214737 155,38 C155.302231,37.8844211 157.71189,37.2496842 156.791798,35 C156.815619,35.0637895 155.137716,36.3806316 155.16377,36.3793684" id="path142" fill="#C7A008"></path>
            <path d="M150.607837,44.9953726 C152.812761,45.0900211 155.251242,43.728256 157,41.3216884 C152.512786,42.2468963 147.795664,34.7351771 148.268617,34 C146.573139,35.235567 145.072535,37.6186559 145.003928,39.2841768 C144.88715,42.3723606 147.388399,44.8662397 150.607837,44.9953726" id="path144" fill="#C7A008"></path>
            <polygon id="polygon146" fill="#C7A008" points="174 63.3092948 175.060171 64 188 26.1795905 178.315729 24 178.194335 26.2154155 186.006201 27.9034876"></polygon>
            <polygon id="polygon148" fill="#C7A008" points="160 21 160.07957 23.0712826 169.762904 25.0463081 173.490936 43 175 41.4556719 171.448406 23.3171947"></polygon>
            <polygon id="polygon150" fill="#C7A008" points="167.549967 40.5666139 165 56.4751186 166.468564 57 169 39"></polygon>
            <polygon id="polygon152" fill="#C7A008" points="38 62.5264818 33.607694 46 32 47.1670831 36.0709014 63"></polygon>
            <path d="M37,37.2510684 C35.8932053,38.4059008 33.4399326,40.6499665 32.0421462,41.5351939 L31.1933592,38.8550023 L29.3345305,32.9784769 L28.1529722,29 L27,30.4554348 L28.1771604,34.4396787 L30.0359892,40.3118789 L30.8811112,43 C32.7949131,41.7874981 35.5787583,39.5117141 37,37.2510684" id="path154" fill="#C7A008"></path>
            <path d="M103,27.2495316 C101.426704,26.7938596 99.1985023,26.9308478 97.995304,27.9218628 C97.7158269,28.1517049 97.1721031,28.7380602 97,29 C98.164361,28.3030224 100.237974,28.1522781 101.597284,28.5214011 L103,27.2495316 L103,27.2495316 Z" id="path156" fill="#7D7F68"></path>
            <path d="M34.9209737,32.1978901 C34.774206,31.2836308 34.0182261,30.557469 33.6475113,30.3558823 C32.9845264,29.9766895 31.8375878,29.9174875 31,30.0980911 C31.1505634,30.7140921 31.3232684,31.4365069 31.3966522,31.7325171 C31.7363687,31.7887216 32.2943388,31.9086245 32.5872415,32.0667464 C32.9547933,32.2765764 33.5975344,32.7711757 33.7468325,33.6914302 C33.9467402,34.9196852 33.8942328,36.0677552 33.4621539,37 C34.6470496,35.6226158 35.2221004,34.1245793 34.9209737,32.1978901" id="path158" fill="#7D7F68"></path>
            <g id="g160" transform="translate(28.000000, 28.000000)" fill="#3C5AA6">
                <g id="g162">
                    <path d="M9.70571429,4.3015 C9.06357143,0.9247 4.55785714,-0.9366 0.0907142857,1.4511 L1.24214286,5.3158 L3.05357143,11.0271 L3.88,13.6283 C7.23142857,11.5164 10.6,8.9789 9.70571429,4.3015 Z M5.26857143,9.4941 C4.78071429,7.9338 3.71071429,4.5647 3.71071429,4.5647 C3.71571429,4.5801 3.5,3.8437 3.24428571,3.0009 C4.19142857,2.835 5.10142857,2.9022 5.85,3.255 C6.26857143,3.4503 7.00428571,3.906 7.165,4.7698 C7.535,6.7116 6.86714286,8.0976 5.26857143,9.4941 L5.26857143,9.4941 Z" id="path164"></path>
                </g>
            </g>
            <g id="g166" transform="translate(94.000000, 25.000000)" fill="#3567B0">
                <g id="g168">
                    <path d="M10.4658125,1.7125625 C8.0623125,-0.49225 4.3264375,-0.3210625 2.134,2.080375 C-0.0715,4.4776875 0.10175,8.215625 2.5086875,10.4115 C2.704625,10.6005625 2.916375,10.75525 3.1295,10.9071875 L10.8824375,2.127125 C10.745625,1.984125 10.608125,1.8418125 10.4658125,1.7125625 L10.4658125,1.7125625 Z M3.1453125,7.888375 C2.387,6.4961875 2.5403125,4.728625 3.674,3.48975 C4.764375,2.30175 6.435,1.9635 7.8595,2.5128125 L3.1453125,7.888375 L3.1453125,7.888375 Z" id="path170"></path>
                </g>
            </g>
            <polygon id="polygon172" fill="#1E2D5F" points="116 26 112 30.2429264 115.80016 34"></polygon>
            <path d="M157.198964,35.3949644 C157.264553,35.6513474 157.298383,35.9050244 157.290098,36.1749368 C157.218295,37.7889992 155.669701,39.0350609 153.823538,38.9505019 C151.978757,38.8882664 150.529582,37.516381 150.602075,35.9063774 C150.664212,34.3971681 152.036752,33.2025183 153.731714,33.126077 C153.409981,33.0550474 153.073751,33.0178414 152.723021,33.005665 C149.634807,32.8751058 147.11066,35.0181695 147.004337,37.6861755 C146.885586,40.5395348 149.21987,42.8659224 152.259064,42.9951286 C155.351421,43.1162171 157.874187,40.9657123 157.99708,38.1258824 C158.032982,37.1416154 157.736105,36.1979368 157.198964,35.3949644" id="path174" fill="#3466AF"></path>
            <path d="M60.2189717,38.9902624 C60.2189717,40.610495 58.7142319,41.908845 56.8711156,41.908845 C55.0231653,41.908845 53.52395,40.6098188 53.52395,38.9902624 C53.52395,37.4802543 54.842928,36.2353259 56.5334296,36.090614 C56.2095549,36.033135 55.8725595,36 55.524515,36 C52.4363111,36 50,38.2430349 50,40.9141196 C50,43.7644036 52.4370017,46 55.4747944,46 C58.5657606,46 61,43.7630511 61,40.9141196 C61,39.9275088 60.667148,38.9977008 60.0946701,38.2322153 C60.1720133,38.4628077 60.2189717,38.7184203 60.2189717,38.9902624" id="path183" fill="url(#linearGradient-8)"></path>
            <g id="g185" transform="translate(3.000000, 0.000000)" fill="url(#linearGradient-9)">
                <g id="g187">
                    <path d="M174.093158,21.0542474 L172.682053,26.876567 L171.378947,20.4296907 L153.929132,16.5841856 L154.051342,26.2982474 L156.681,26.8886598 L156.491289,28.6406907 C156.457184,28.6271753 156.435868,28.6065464 156.417395,28.5916082 C153.1575,26.8694536 149.116026,26.6930412 145.312579,28.1313711 C144.036474,28.6200619 142.852026,29.2624021 141.777711,30.0434536 L139.145211,13.4066289 L127.540184,13.4066289 L127.220447,15.3194227 L115.005789,15.3194227 L113.611026,23.871866 L112.597816,22.6191959 C109.637763,18.9785567 105.346895,16.9732887 100.593474,16.873701 L110.964316,11.2932371 L103.732579,0.488690722 L90.6667105,15.5612784 L92.9219211,18.3141649 C90.8791579,19.1499897 89.0943158,20.3023608 87.6157105,21.6944536 L76.4128421,11.7435155 L72.4957105,19.2595361 L72.6463421,12.0365876 L55.1311579,17.6383918 L55.5802105,27.0593814 L58.5601579,26.2854433 L59.0006842,31.0599588 C55.5958421,29.5291546 51.5032105,29.5668557 47.7075789,31.1723505 C46.5828158,31.6631753 45.5340789,32.2663918 44.5677632,32.9677732 C45.2242895,30.0591031 45.0686842,27.1916907 43.9616842,24.6344227 C42.6543158,21.6126495 40.3536316,19.115134 37.5328421,17.5395155 C35.5554474,16.2206907 33.1986316,15.3990928 30.7323947,15.1195361 C24.6716053,14.0589278 17.3936842,15.1479897 10.2308684,18.2031959 C7.59765789,19.3278247 5.14136842,20.6039691 2.92594737,22.0166907 L0.125763158,23.7943299 L1.81681579,26.6532062 L7.06476316,35.532866 C7.06476316,35.532866 8.67055263,38.2537423 8.68121053,38.2523196 L11.5190526,36.8559588 L11.9148158,36.6738557 L24.9551053,65.8110619 L26.2127368,68.6116082 L29.1244737,67.6726392 L36.18,65.409866 L39.2722105,64.4260825 L38.4565263,61.2748454 L34.7092105,46.8737629 C35.7870789,46.0749278 36.7931842,45.2277216 37.7218421,44.3406804 C37.5122368,46.0614124 37.6223684,47.8034845 38.0955789,49.470866 C39.0753947,52.9621237 41.3590263,55.7199897 44.5279737,57.2479485 C47.9505789,58.894701 52.1263421,58.8989691 55.9894737,57.2586186 C57.9270789,56.4355979 59.6501053,55.2348557 61.1102368,53.8057732 L61.6424211,59.5413093 L73.9984737,57.719567 L73.9792895,46.6276392 L99.7976842,59.4025979 L99.7976842,47.0331031 C100.833632,46.9463196 101.890895,46.7827113 102.953842,46.5216495 C105.797368,45.8337835 108.230921,44.8905464 110.393053,43.5937732 L109.308789,50.2369794 L123.229421,52.4300412 L123.993237,47.4150928 L127.629,54.1393918 L129.851526,49.8521443 L130.663658,56.891567 L146.446579,59.6771753 L145.609579,54.3613299 C147.770289,54.6060309 150.047526,54.3158041 152.247316,53.4849588 C152.768132,53.2921856 153.282553,53.0574433 153.774947,52.8056289 L153.146132,58.4614948 L163.650553,59.9453505 L163.728711,64.2582062 L174.682184,67.7003814 L188.943158,24.6678557 L174.093158,21.0542474 L174.093158,21.0542474 Z M112.424447,27.4491959 L113.148474,26.6788144 L112.273816,32.1042062 L109.992316,30.0470103 L112.424447,27.4491959 Z M103.174816,5.28668041 L106.998868,10.4872887 L96.066,15.9133918 L95.3107105,14.7645773 L103.174816,5.28668041 L103.174816,5.28668041 Z M30.78,45.3899072 L35.1419211,62.1455258 L28.0821316,64.4033196 L13.5952105,32.0131546 C12.8072368,32.427866 11.3520789,33.1235567 10.0155789,33.7794124 L4.76976316,24.9075773 C6.85586842,23.5738144 9.14376316,22.391567 11.5773158,21.3622577 C18.4068947,18.454299 24.9231316,17.5864639 30.1348421,18.5083608 C31.9786579,18.7160722 33.9304737,19.2602474 35.64,20.3962577 C37.9854474,21.7186392 39.7795263,23.6008454 40.8140526,25.9980619 C43.3371316,31.8353196 39.1222895,40.2355361 30.78,45.3899072 Z M63.2375526,42.4079691 C63.1565526,44.9026392 62.2413947,47.4022887 60.7095,49.5171031 C59.2522105,51.5622062 57.2165526,53.2502165 54.8213684,54.2823711 C48.6966316,56.8801856 42.5718947,54.2823711 40.9355526,48.4607629 C39.3503684,42.8319278 43.0387105,36.1311031 48.9730263,33.571701 C52.7629737,31.9697629 56.5657105,32.3496186 59.2898684,34.2026598 C60.9723947,35.3450722 62.2556053,37.0629588 62.8545789,39.2154742 C62.9298947,39.4438144 62.9796316,39.6835361 63.0300789,39.9182784 C63.2013158,40.7384536 63.2702368,41.5792577 63.2375526,42.4079691 L63.2375526,42.4079691 Z M96.5619474,54.2539175 L70.9439211,41.4263196 L70.9893947,54.8663814 L64.3623158,55.7712062 L63.9004737,50.2312887 C65.9467895,46.7186907 66.6949737,42.5794021 65.6270526,38.7836907 C65.0408684,36.6973299 63.9580263,34.8862577 62.4865263,33.4351237 L61.5358421,22.1397526 L58.5601579,22.912268 L58.4287105,20.0562371 L69.0709737,16.8836598 L69.7232368,27.8724433 L77.5631842,16.8445361 L85.2276316,24.152134 L74.5093421,35.4567526 L84.5789211,39.4445258 C85.7036842,41.5785464 87.4196053,43.3917526 89.5725,44.7276495 C91.6536316,46.0137526 94.0381579,46.7741753 96.5605263,47.0238557 L96.5619474,54.2539175 L96.5619474,54.2539175 Z M83.2601842,35.6694433 L79.6968947,34.293 L83.0186053,31.0606701 C82.8765,32.5445258 82.9496842,34.0959588 83.2601842,35.6694433 Z M111.139105,39.0298144 C108.680684,41.0656701 105.878368,42.3930309 102.175816,43.2886082 C101.366526,43.474268 100.573579,43.6094227 99.7976842,43.6777113 C93.9209211,44.2560309 88.9905789,41.5543608 87.1197632,37.1725052 C86.8867105,36.6418454 86.7069474,36.1047835 86.5712368,35.5314433 C85.7058158,31.8410103 86.4447632,28.5425258 88.2658421,25.9582268 C88.7902105,25.2042062 89.4126316,24.5170515 90.1117895,23.8981856 C91.827,22.3659588 94.0168421,21.252 96.5065263,20.6530515 C102.104763,19.3015052 107.035105,21.0122784 110.057684,24.7254742 L99.3898421,36.0934021 C100.113158,36.2299794 101.2635,36.0400515 102.112579,35.8366082 C104.653421,35.2163196 106.075184,33.8661959 107.327842,32.3951443 L111.591,36.2349588 L112.882737,37.4029794 C112.322842,37.9827216 111.734526,38.5297423 111.139105,39.0298144 L111.139105,39.0298144 Z M133.7715,54.200567 L131.450921,38.8107216 L128.169,47.300567 L123.255,36.6895052 L123.199579,36.6895052 L121.257711,48.9779072 L113.067474,47.5509588 L114.219237,40.6936392 C114.528316,40.402701 114.832421,40.1110515 115.131553,39.8030412 L117.786079,37.0665155 L115.206158,34.7532371 L117.947368,18.423 L126.210789,18.423 L128.279132,29.7276186 L130.596868,16.626866 L136.507737,16.626866 L138.960474,32.5879175 C135.839132,36.1474639 134.322868,40.9326495 135.365921,45.3102371 C136.172368,48.7040412 138.255632,51.4370103 141.241974,53.0332577 C141.542526,53.1847732 141.853737,53.334866 142.174895,53.4643299 L142.487526,55.5336186 L133.7715,54.200567 L133.7715,54.200567 Z M154.181368,49.1863299 C153.278289,49.8300928 152.284263,50.3771134 151.215632,50.7719072 C149.106079,51.576433 147.007895,51.7435979 145.1385,51.371567 C143.835395,51.1140619 142.647395,50.6054536 141.613579,49.8692165 C139.969421,48.678433 138.758684,46.92 138.225079,44.712 C137.602658,42.0594124 138.176053,39.2268557 139.601368,36.745701 C140.311895,35.532866 141.2235,34.393299 142.302079,33.4109381 C143.505,32.3311237 144.899763,31.4469278 146.451553,30.8494021 C150.063158,29.500701 153.625026,29.9659175 156.132474,31.7705876 C157.054737,32.4250206 157.819974,33.258 158.423211,34.226134 C158.880789,34.9908247 159.236053,35.8337629 159.451342,36.7542371 C160.219421,39.9396186 159.304974,43.3512062 157.297737,46.0998247 C156.438,47.2714021 155.389974,48.3241856 154.181368,49.1863299 L154.181368,49.1863299 Z M172.623079,63.6919794 L166.566553,61.8858866 L166.038632,39.5313093 L162.992605,56.7763299 L156.385421,55.720701 L156.858632,50.7555464 C161.172947,47.1056598 163.460132,41.3480722 162.206763,36.1303918 C161.656105,33.8199588 160.469526,31.8082887 158.796947,30.2789072 L159.354711,24.4231546 L156.8565,23.7573402 L157.023474,20.631 L168.406816,22.9215155 L172.234421,41.0934124 L176.160079,24.8015876 L184.819974,26.7172268 L172.623079,63.6919794 L172.623079,63.6919794 Z" id="path196"></path>
                </g>
            </g>
            <g id="flowRoot3115" transform="translate(180.000000, 64.000000)" fill="#000000">
                <polygon id="path3084" points="0.733073333 1.93652933 0.733073333 0.252935333 0.104166667 0.252935333 0.104166667 0.0276753333 1.61718667 0.0276753333 1.61718667 0.252935333 0.98568 0.252935333 0.98568 1.93652933"></polygon>
                <path d="M1.86979333,1.93652933 L1.86979333,0.0276753333 L2.25,0.0276753333 L2.70182,1.37923733 C2.74348667,1.505106 2.77387333,1.59929 2.79296667,1.66179 C2.81463333,1.59234533 2.8485,1.49034933 2.89453333,1.3558 L3.35156,0.0276753333 L3.69140667,0.0276753333 L3.69140667,1.93652933 L3.44791333,1.93652933 L3.44791333,0.338873333 L2.89322667,1.93652933 L2.66536667,1.93652933 L2.11328,0.311529333 L2.11328,1.93652933 L1.86979333,1.93652933 Z" id="path3086"></path>
            </g>
        </g>
    </g>
</svg>